<?xml version="1.0" encoding="UTF-8" standalone="no"?>
<!-- Created with Inkscape (http://www.inkscape.org/) -->

<svg
   xmlns:dc="http://purl.org/dc/elements/1.1/"
   xmlns:cc="http://creativecommons.org/ns#"
   xmlns:rdf="http://www.w3.org/1999/02/22-rdf-syntax-ns#"
   xmlns:svg="http://www.w3.org/2000/svg"
   xmlns="http://www.w3.org/2000/svg"
   xmlns:sodipodi="http://sodipodi.sourceforge.net/DTD/sodipodi-0.dtd"
   xmlns:inkscape="http://www.inkscape.org/namespaces/inkscape"
   id="svg2"
   version="1.1"
   inkscape:version="0.91 r13725"
   width="709"
   height="709"
   viewBox="0 0 709 709"
   sodipodi:docname="Spotify_Icon_RGB_White.svg">
  <metadata
     id="metadata8">
    <rdf:RDF>
      <cc:Work
         rdf:about="">
        <dc:format>image/svg+xml</dc:format>
        <dc:type
           rdf:resource="http://purl.org/dc/dcmitype/StillImage" />
        <dc:title></dc:title>
      </cc:Work>
    </rdf:RDF>
  </metadata>
  <defs
     id="defs6" />
  <sodipodi:namedview
     pagecolor="#ffffff"
     bordercolor="#666666"
     borderopacity="1"
     objecttolerance="10"
     gridtolerance="10"
     guidetolerance="10"
     inkscape:pageopacity="0"
     inkscape:pageshadow="2"
     inkscape:window-width="1920"
     inkscape:window-height="1056"
     id="namedview4"
     showgrid="false"
     inkscape:zoom="0.47073963"
     inkscape:cx="-249.09307"
     inkscape:cy="267.30004"
     inkscape:window-x="1920"
     inkscape:window-y="24"
     inkscape:window-maximized="1"
     inkscape:current-layer="svg2" />
  <circle
     style="fill:#ffffff;fill-opacity:1;stroke:none;stroke-width:0.80000001;stroke-miterlimit:4;stroke-dasharray:none;stroke-opacity:1"
     id="path8072"
     cx="355.38245"
     cy="353.49323"
     r="352.63654" />
  <path
     style="fill:#000000"
     d="m 477.87586,509.4067 c -2.4307,-1.26524 -8.9737,-4.87389 -14.54,-8.01921 -22.3617,-12.63575 -53.5956,-24.40206 -82.3795,-31.03361 -32.607,-7.51236 -62.035,-10.20108 -102,-9.31934 -36.3909,0.80289 -63.709,3.97647 -101.7303,11.81815 l -15.2304,3.14118 -4.456,-1.70179 c -5.4372,-2.07646 -11.0447,-8.0554 -12.6828,-13.52276 -2.2969,-7.66653 3.0404,-17.39772 11.5995,-21.14874 7.8221,-3.42797 49.3467,-10.92374 79.5,-14.35086 91.7308,-10.42577 181.6551,6.43612 250.6668,47.00301 11.1966,6.58166 14.4988,9.68264 16.8404,15.8141 l 1.6504,4.32143 -1.1209,4.16258 c -2.1002,7.79959 -10.9836,15.13631 -18.3273,15.13631 -1.8537,0 -5.3592,-1.0352 -7.7899,-2.30045 z m 40.0805,-91.04356 c -1.925,-0.69092 -8,-3.84986 -13.5,-7.01987 -89.6871,-51.69245 -225.3125,-68.06748 -331.1749,-39.98513 -18.8183,4.99196 -22.0551,5.20504 -28.8166,1.89696 -12.8243,-6.27435 -18.0345,-19.65613 -12.1638,-31.24135 3.7671,-7.434 9.5396,-11.9046 19.1266,-14.81279 20.7723,-6.3012 50.7033,-12.32473 77.5287,-15.60244 21.4704,-2.62338 69.1467,-3.63871 92.165,-1.96276 75.5444,5.50033 146.3777,25.98451 205.1046,59.31397 15.738,8.93179 21.751,16.37128 21.7207,26.87344 -0.024,8.50201 -8.5249,19.17446 -17.785,22.3297 -5.4211,1.84718 -7.5428,1.88373 -12.2053,0.21027 z m 44,-107.01567 c -2.475,-0.67137 -10.35,-4.41716 -17.5,-8.32398 -49.5692,-27.08504 -110.7285,-44.04362 -187.5,-51.99106 -21.1905,-2.19365 -98.9105,-2.53113 -120.5,-0.52323 -31.0584,2.88855 -61.1241,8.07177 -85.5979,14.75681 -14.7747,4.03573 -16.9355,4.14887 -24.5836,1.28735 -10.987,-4.11079 -20.3185,-16.83481 -20.3185,-27.70558 0,-9.23181 6.9255,-20.43796 15.6581,-25.33642 6.2675,-3.5157 20.4908,-7.68121 41.8419,-12.25407 90.8393,-19.4554 200.4919,-16.83128 295.7972,7.0788 37.3629,9.37356 70.4155,21.5687 102.0956,37.66935 23.093,11.73646 28.7334,16.13494 33.0633,25.78326 l 2.7665,6.16452 -0.408,5.64143 c -0.7716,10.66706 -8.2282,21.18186 -18.1592,25.60692 -6.8564,3.05511 -11.2275,3.61828 -16.6554,2.1459 z"
     id="path8070"
     inkscape:connector-curvature="0"
     sodipodi:nodetypes="ssssscsssssscssssssssssssssssssssssssssscsss" />
</svg>
